<?xml version="1.0" encoding="UTF-8"?>
<svg width="1751px" height="682px" viewBox="0 0 1751 682" version="1.1" xmlns="http://www.w3.org/2000/svg" xmlns:xlink="http://www.w3.org/1999/xlink">
    <!-- Generator: Sketch 58 (84663) - https://sketch.com -->
    <title>Group 2</title>
    <desc>Created with Sketch.</desc>
    <g id="Page-1" stroke="none" stroke-width="1" fill="none" fill-rule="evenodd">
        <g id="Apple-TV" transform="translate(-103.000000, -215.000000)">
            <g id="Group-2" transform="translate(103.365779, 215.104475)">
                <g id="Group" transform="translate(0.000000, 0.000000)">
                    <path d="M155.706954,680.733559 L441.634221,462.35517 L441.634221,462.35517 L119.634221,166.895525 L128.39101,667.520593 C128.555212,676.907998 136.298319,684.384881 145.685724,684.220679 C149.312622,684.157239 152.824136,682.935326 155.706954,680.733559 Z" id="Path" fill="#5EC8A5" transform="translate(280.634221, 434.021272) rotate(1.000000) translate(-280.634221, -434.021272) "></path>
                    <rect id="Rectangle" fill="#5EC8A5" x="0" y="0" width="589" height="588" rx="187"></rect>
                    <path d="M381.710987,182.691194 L369.213546,206.750734 C367.824934,209.529278 366.215431,211.486858 364.384989,212.623535 C362.554546,213.760212 360.376984,214.328542 357.852236,214.328542 C355.327487,214.328542 352.487188,213.349752 349.331253,211.392142 C346.175318,209.434531 342.45137,207.255933 338.159298,204.856282 C333.867226,202.456631 328.849364,200.278033 323.105562,198.320423 C317.36176,196.362813 310.576601,195.384022 302.749881,195.384022 C295.680586,195.384022 289.526605,196.236517 284.287752,197.941533 C279.0489,199.646548 274.630657,202.014589 271.032891,205.045727 C267.435124,208.076866 264.752611,211.707862 262.985296,215.938826 C261.217972,220.16979 260.334324,224.811151 260.334324,229.863048 C260.334324,236.304217 262.13318,241.671777 265.730946,245.96589 C269.328712,250.260002 274.094103,253.922573 280.027261,256.953711 C285.960419,259.984834 292.71402,262.700204 300.288264,265.099855 C307.862509,267.499506 315.594434,270.05699 323.484272,272.772385 C331.374111,275.48778 339.106036,278.645168 346.680281,282.244645 C354.254525,285.844122 361.008125,290.390761 366.941284,295.884699 C372.874442,301.378637 377.639833,308.103874 381.237599,316.060612 C384.835365,324.017351 386.634221,333.678959 386.634221,345.045727 C386.634221,357.422876 384.519776,369.010491 380.290823,379.808921 C376.06187,390.607351 369.876329,400.016368 361.734016,408.036255 C353.591704,416.056142 343.650657,422.370919 331.910577,426.980775 C320.170498,431.590631 306.726416,433.895525 291.577926,433.895525 C282.867545,433.895525 274.28353,433.04303 265.825623,431.338014 C257.367717,429.632999 249.257085,427.20181 241.493484,424.044374 C233.729883,420.886939 226.471341,417.098073 219.71764,412.677663 C212.963938,408.257253 206.936192,403.331727 201.634221,397.900937 L216.403924,373.462507 C217.792536,371.694343 219.465156,370.21037 221.421836,369.010545 C223.378516,367.810719 225.556079,367.210815 227.95459,367.210815 C231.110525,367.210815 234.518884,368.505345 238.179769,371.094442 C241.840654,373.683539 246.16422,376.556763 251.150598,379.714198 C256.136976,382.871634 262.006927,385.744858 268.760629,388.333955 C275.51433,390.923052 283.624962,392.217581 293.092768,392.217581 C307.61007,392.217581 318.845031,388.776028 326.797988,381.892818 C334.750945,375.009608 338.727363,365.126983 338.727363,352.244645 C338.727363,345.045692 336.928507,339.172949 333.330741,334.626242 C329.732975,330.079534 324.967584,326.259094 319.034426,323.164807 C313.557664,320.308542 307.381828,317.855865 300.506758,315.806713 L298.773423,315.302832 C291.199178,313.155775 283.498812,310.819308 275.672092,308.293359 C267.845373,305.767411 260.145006,302.736318 252.570762,299.19999 C244.996517,295.663662 238.242917,291.053875 232.309759,285.370491 C226.3766,279.687106 221.611209,272.582983 218.013443,264.057906 C214.415677,255.53283 212.616821,245.018726 212.616821,232.515281 C212.616821,222.537784 214.60503,212.813028 218.581509,203.340721 C222.557987,193.868414 228.364821,185.469761 236.002184,178.14451 C243.639548,170.819259 253.012535,164.946516 264.121427,160.526106 C275.230319,156.105696 287.916988,153.895525 302.181816,153.895525 C318.340204,153.895525 333.235995,156.42146 346.869636,161.473332 C360.503276,166.525204 372.116944,173.597779 381.710987,182.691194 Z" id="S" fill="#FFFFFF" fill-rule="nonzero"></path>
                </g>
                <path d="M939.890481,179.926928 L926.920164,204.931664 C925.47901,207.819365 923.808607,209.853851 921.908905,211.035183 C920.009202,212.216515 917.749245,212.807172 915.128966,212.807172 C912.508687,212.807172 909.560917,211.789929 906.285568,209.755413 C903.010219,207.720896 899.145365,205.456711 894.69089,202.962788 C890.236416,200.468864 885.028689,198.204679 879.067554,196.170162 C873.106419,194.135646 866.064524,193.118403 857.941658,193.118403 C850.604876,193.118403 844.218042,194.004389 838.780962,195.776387 C833.343883,197.548385 828.758463,200.009457 825.024565,203.159675 C821.290667,206.309894 818.506662,210.083537 816.672467,214.480717 C814.838271,218.877897 813.921187,223.701598 813.921187,228.951962 C813.921187,235.646177 815.788108,241.224606 819.522006,245.687415 C823.255904,250.150225 828.201607,253.956682 834.359263,257.106901 C840.516919,260.25712 847.526061,263.079149 855.386899,265.573072 C863.247736,268.066995 871.272221,270.724952 879.460594,273.547023 C887.648966,276.369094 895.673451,279.650523 903.534289,283.391407 C911.395126,287.132292 918.404268,291.857549 924.561924,297.567321 C930.71958,303.277092 935.665283,310.266535 939.399181,318.535859 C943.133079,326.805183 945,336.846355 945,348.659675 C945,361.523068 942.805549,373.565911 938.416581,384.788566 C934.027614,396.01122 927.608026,405.789877 919.157625,414.124831 C910.707225,422.459785 900.39003,429.022642 888.205732,433.813599 C876.021433,438.604557 862.068656,441 846.346981,441 C837.307017,441 828.398202,440.114014 819.620266,438.342016 C810.842331,436.570018 802.42481,434.043318 794.367451,430.76184 C786.310093,427.480362 778.776903,423.542648 771.767656,418.948579 C764.758409,414.35451 758.502586,409.235482 753,403.59134 L768.328557,378.192828 C769.76971,376.355201 771.505619,374.812929 773.536336,373.565968 C775.567052,372.319006 777.827009,371.695535 780.316274,371.695535 C783.591623,371.695535 787.128947,373.04092 790.928352,375.731732 C794.727757,378.422544 799.214918,381.408644 804.389969,384.690122 C809.565021,387.9716 815.657079,390.9577 822.666325,393.648512 C829.675572,396.339323 838.093093,397.684709 847.91914,397.684709 C862.985746,397.684709 874.645813,394.107952 882.899693,386.95433 C891.153572,379.800708 895.28045,369.529837 895.28045,356.141407 C895.28045,348.659638 893.413529,342.556181 889.679632,337.830853 C885.945734,333.105524 881.000031,329.134996 874.842375,325.919147 C869.197856,322.971287 862.837854,320.437063 855.762205,318.316414 L853.814739,317.748309 C845.953901,315.516904 837.96217,313.088646 829.839304,310.463464 C821.716438,307.838282 813.724707,304.68811 805.863869,301.012855 C798.003031,297.3376 790.99389,292.546714 784.836233,286.640054 C778.678577,280.733394 773.732874,273.35018 769.998976,264.490189 C766.265079,255.630199 764.398158,244.703042 764.398158,231.70839 C764.398158,221.33892 766.461597,211.23212 770.588536,201.387686 C774.715476,191.543253 780.742028,182.814652 788.668373,175.201624 C796.594717,167.588595 806.322358,161.485138 817.851586,156.891069 C829.380815,152.297 842.547521,150 857.352098,150 C874.121885,150 889.581301,152.625143 903.730809,157.875507 C917.880316,163.125872 929.93342,170.476272 939.890481,179.926928 Z M1031.5132,146 L1031.5132,313.222073 L1040.54805,313.222073 C1043.82156,313.222073 1046.37486,312.763576 1048.20803,311.846568 C1050.04119,310.92956 1052.00527,309.226571 1054.10032,306.73755 L1104.18479,244.839838 C1106.41078,242.219816 1108.76767,240.15658 1111.25554,238.650067 C1113.74341,237.143555 1117.01688,236.39031 1121.07603,236.39031 L1165.46463,236.39031 L1102.80993,311.257066 C1100.58394,314.008089 1098.29251,316.529823 1095.93559,318.822342 C1093.57866,321.114861 1091.02534,323.112598 1088.27561,324.815612 C1091.02534,326.780629 1093.44772,329.073114 1095.54277,331.693136 C1097.63781,334.313158 1099.73283,337.129639 1101.82788,340.142665 L1169,438 L1125.20063,438 C1121.40336,438 1118.19537,437.345004 1115.57656,436.034993 C1112.95775,434.724982 1110.60086,432.497997 1108.50581,429.35397 L1057.24287,352.915209 C1055.27877,349.902183 1053.31469,347.937196 1051.35058,347.020188 C1049.38647,346.103181 1046.44036,345.644684 1042.51214,345.644684 L1031.5132,345.644684 L1031.5132,438 L983,438 L983,146 L1031.5132,146 Z M1200,438 L1200,236.727273 L1228.3792,236.727273 C1233.33744,236.727273 1236.7951,237.642734 1238.75229,239.473684 C1240.70949,241.304634 1242.01427,244.443359 1242.66667,248.889952 L1245.60245,273.215311 C1252.77883,260.791006 1261.19465,250.982492 1270.85015,243.789474 C1280.50565,236.596455 1291.33531,233 1303.33945,233 C1313.25591,233 1321.47601,235.288653 1328,239.866029 L1321.737,276.157895 C1321.34556,278.511973 1320.49746,280.179421 1319.19266,281.160287 C1317.88786,282.141153 1316.12641,282.631579 1313.90826,282.631579 C1311.95106,282.631579 1309.27627,282.173848 1305.88379,281.258373 C1302.49132,280.342898 1297.98983,279.885167 1292.3792,279.885167 C1282.33226,279.885167 1273.72073,282.664247 1266.54434,288.222488 C1259.36796,293.78073 1253.30074,301.921796 1248.34251,312.645933 L1248.34251,438 L1200,438 Z M1431.12023,493.563556 C1429.67875,496.97675 1427.8114,499.569425 1425.51813,501.341661 C1423.22486,503.113896 1419.71949,504 1415.00191,504 L1378.83397,504 L1416.57443,423.068332 L1335,236 L1377.45802,236 C1381.38933,236 1384.4033,236.918923 1386.5,238.756796 C1388.5967,240.59467 1390.16921,242.695065 1391.21756,245.058046 L1434.26527,349.816312 C1435.70675,353.229505 1436.95165,356.773922 1438,360.449669 C1439.04835,364.125416 1439.96564,367.801108 1440.75191,371.476855 C1441.80026,367.669832 1442.94688,363.994122 1444.19179,360.449669 C1445.12548,357.791317 1446.11444,355.096073 1447.15869,352.363892 L1488.71374,245.058046 C1489.76209,242.432512 1491.4984,240.266479 1493.92271,238.559882 C1496.34702,236.853286 1499.06614,236 1502.08015,236 L1541,236 L1431.12023,493.563556 Z M1670.08855,438 L1626.1078,438 L1546,236 L1586.25024,236 C1589.78443,236 1592.76226,236.853143 1595.18383,238.559454 C1597.6054,240.265766 1599.2743,242.431436 1600.19057,245.05653 L1639.06641,352.947368 C1641.29164,359.247595 1643.15687,365.416474 1644.66218,371.454191 C1646.16748,377.491908 1647.50914,383.529534 1648.6872,389.567251 C1649.86526,383.529534 1651.20692,377.491908 1652.71222,371.454191 C1654.21752,365.416474 1656.14821,359.247595 1658.50433,352.947368 L1698.36189,245.05653 C1699.27816,242.431436 1700.91433,240.265766 1703.27045,238.559454 C1705.62658,236.853143 1708.44079,236 1711.71319,236 L1750,236 L1670.08855,438 Z" id="Skryv" fill="#000000" fill-rule="nonzero"></path>
            </g>
        </g>
    </g>
</svg>